<svg id="Livello_1" data-name="Livello 1" xmlns="http://www.w3.org/2000/svg" viewBox="0 0 2000 2000"><defs><style>.cls-1{fill:#fff;}</style></defs><title>nuovo_logo</title><path class="cls-1" d="M997.62,218.75c273.61,0,514.92,140.93,655.17,354a17.07,17.07,0,0,0,14.24,7.73h0c13.54,0,21.79-15.08,14.35-26.39C1535,331.7,1283.19,184.58,997.62,184.58c-279.16,0-534,139.58-684.3,369.54-7.41,11.32.84,26.37,14.36,26.37h.12a17,17,0,0,0,14.26-7.78C486.13,352.46,730.2,218.75,997.62,218.75Z"/><path class="cls-1" d="M997.36,1786.33c-249.17,0-471.52-116.91-615.19-298.72a17,17,0,0,0-13.35-6.52h0c-14.32,0-22.24,16.53-13.36,27.77,149.93,189.68,381.93,311.63,641.92,311.63s492-122,641.91-311.63a17.11,17.11,0,0,0-13.36-27.77h0a17,17,0,0,0-13.36,6.52C1468.88,1669.42,1246.53,1786.33,997.36,1786.33Z"/><path class="cls-1" d="M130.44,713.37h90.61q37.66,0,69.12,11.71t52.95,32.52a143.84,143.84,0,0,1,33.34,50.07q11.85,29.26,11.85,64t-11.63,63.84a140.86,140.86,0,0,1-32.9,49.75q-21.25,20.6-52.39,32.08t-69,11.49H130.44ZM220.83,1005q31.23,0,57.6-10T323,967.44a122,122,0,0,0,28.25-42.27,140.41,140.41,0,0,0,10.08-53.54,142.55,142.55,0,0,0-10.2-54.31,123.47,123.47,0,0,0-28.24-42.6q-18.06-17.55-44.2-27.53t-57.16-10H155.92V1005Z"/><path class="cls-1" d="M773.59,945.33H617.84l-32.12,83.46H558.47l123.4-315.42h27l124.5,315.42H805.93Zm-9.09-23.85L695.6,743.72h-.44L626.93,921.48Z"/><path class="cls-1" d="M1272.74,713.37h25.48V1005H1467v23.84H1272.74Z"/><path class="cls-1" d="M1865.37,713.37,1753.72,886.58v142.21h-25.48V886.58L1617.47,713.37h29.91L1740.2,859.7H1742l93.26-146.33Z"/><path class="cls-1" d="M1036.5,757.14l4.84-30.9a9.67,9.67,0,0,0-9.7-11H997.73a9.67,9.67,0,0,0-9.7,11l4.84,30.9a9.74,9.74,0,0,0,9.7,8.15h24.23A9.76,9.76,0,0,0,1036.5,757.14Z"/><path class="cls-1" d="M1053.69,988.5l-17.64-185.31a9.73,9.73,0,0,0-9.77-8.71h-23.45a9.73,9.73,0,0,0-9.74,8.43L969.89,988a9.5,9.5,0,0,0,2.38,7.52l32.62,35.47a9.77,9.77,0,0,0,15-.52l31.86-35.21A9.42,9.42,0,0,0,1053.69,988.5Z"/><path class="cls-1" d="M129.34,1133.72h35.18v202.21H129.34Z"/><path class="cls-1" d="M392,1133.72v202.21H356.27l-99.86-143h-.57v143h-35V1133.72h34.75l100.72,145.09H357V1133.72Z"/><path class="cls-1" d="M489.57,1164.57H431v-30.85H583.76v30.85H524.61v171.36h-35Z"/><path class="cls-1" d="M622.74,1133.72H752.53v30.85H657.78v55.73h76.59v30.86H657.78v53.92H758.63v30.85H622.74Z"/><path class="cls-1" d="M915.77,1335.93l-49.23-72.13h-27.8v72.13h-35V1133.72h76.17a98.76,98.76,0,0,1,26,3.2,62.77,62.77,0,0,1,19.93,9,54.47,54.47,0,0,1,13.76,14,59.42,59.42,0,0,1,8.15,18.07,82.38,82.38,0,0,1,2.63,21.26q0,24.32-11.85,39.68t-33.4,21.19v.56l52.76,75.18Zm-77-103h33.48q20.56,0,31.21-9.31t10.63-25q0-16-10.28-25t-29.15-9H838.74Z"/><path class="cls-1" d="M1169.64,1133.72v202.21H1133.9l-99.86-143h-.57v143h-35V1133.72h34.76l100.71,145.09h.71V1133.72Z"/><path class="cls-1" d="M1246.64,1330.24a107.61,107.61,0,0,1-35.18-23.77l22.13-26.68a76.8,76.8,0,0,0,25,19.8,63.24,63.24,0,0,0,27.88,6.88q16.74,0,25.53-6.6t8.79-18.14a24.11,24.11,0,0,0-.92-6.88,24.72,24.72,0,0,0-2.34-5.56,18.43,18.43,0,0,0-4.25-4.79,44.4,44.4,0,0,0-5.61-4,61.53,61.53,0,0,0-7.51-3.68q-4.76-2-8.73-3.55t-10.49-3.75q-7.67-2.64-13.34-4.86t-12.55-5.56a79.67,79.67,0,0,1-21.63-14.8,42.89,42.89,0,0,1-8-9.87,54,54,0,0,1-4.89-12,52.34,52.34,0,0,1-1.91-14.39,50.24,50.24,0,0,1,8.79-28.63,60.38,60.38,0,0,1,23.76-20.5,72.24,72.24,0,0,1,32.55-7.43q35.9-.13,68.37,24.87l-20.85,27q-25.39-20.71-47.52-20.71-12.33,0-20.49,6.32t-8.3,17.3q-.15,10.29,10.21,17,6.67,4.17,28.37,12.37,25.68,9.87,34.61,14.73,19.58,10.56,25.68,26.55a61.63,61.63,0,0,1-.71,43.08,52.06,52.06,0,0,1-11.28,17.09,67.86,67.86,0,0,1-16.31,11.82,78.17,78.17,0,0,1-19.22,7.08,90.83,90.83,0,0,1-20,2.23A103.65,103.65,0,0,1,1246.64,1330.24Z"/><path class="cls-1" d="M1400.94,1133.72h35v90.34h93.33v-90.34h35v202.21h-35v-81H1436v81h-35Z"/><path class="cls-1" d="M1620.63,1133.72h35.18v202.21h-35.18Z"/><path class="cls-1" d="M1712.09,1133.72h74.75a104.13,104.13,0,0,1,22.27,2.23,68.26,68.26,0,0,1,18,6.39,57.42,57.42,0,0,1,13.54,10,49.61,49.61,0,0,1,9.44,13.21,69.48,69.48,0,0,1,5.46,15.77,83.94,83.94,0,0,1,1.84,18,75.1,75.1,0,0,1-3.47,23.49,53.36,53.36,0,0,1-9.93,18.13,56.51,56.51,0,0,1-15.68,12.72,75,75,0,0,1-20.64,7.64,116.16,116.16,0,0,1-24.89,2.5h-35.6v72.13h-35Zm67.24,99.09q20.85,0,31.27-9.24t10.43-25q0-16.11-10.21-25.08t-29.08-9h-34.61v68.24Z"/></svg>