<?xml version="1.0" encoding="utf-8"?>
<!-- Generator: Adobe Illustrator 21.0.0, SVG Export Plug-In . SVG Version: 6.00 Build 0)  -->
<svg version="1.1" id="Livello_2" xmlns="http://www.w3.org/2000/svg" xmlns:xlink="http://www.w3.org/1999/xlink" x="0px" y="0px"
	 viewBox="0 0 627.9 200" style="enable-background:new 0 0 627.9 200;" xml:space="preserve">
<g>
	<g>
		<path fill="#fff" d="M45.2,76.7h-2v19.5h2c6.6,0,14.1-1.2,14.1-9.8C59.4,77.9,51.9,76.7,45.2,76.7z"/>
		<path fill="#fff" d="M0,0v200h200l0-200H0z M62.7,139.4l-19.2-30.1h-0.2v30.1H22.9V61.1h30.4c15.5,0,27.2,7.4,27.2,24.1
			c0,10.8-6,20.2-17.1,22.1L88,139.4H62.7z M146.9,139.4H128v-5.9h-0.2c-3.3,5.3-9.9,7.7-16.1,7.7c-15.8,0-26.9-13.2-26.9-28.5
			c0-15.3,10.9-28.4,26.7-28.4c6.1,0,12.6,2.3,16.5,7v-5.2h18.9V139.4z M176.7,139.4h-18.9V86.1h18.9V139.4z M167.2,76.2
			c-5.8,0-10.6-4.8-10.6-10.6c0-5.8,4.8-10.6,10.6-10.6c5.8,0,10.6,4.8,10.6,10.6C177.8,71.5,173,76.2,167.2,76.2z"/>
		<path fill="#fff" d="M116.4,100.8c-7.7,0-12.2,5.5-12.2,12c0,6.8,4.5,11.9,12.2,11.9c7.7,0,12.2-5.2,12.2-11.9
			C128.6,106.3,124.1,100.8,116.4,100.8z"/>
	</g>
</g>
<g>
	<path fill="#fff" d="M258.8,123.8v16.4h-31.9v-16.4h7.7V77.2h-7.7V60.9h31.9c9.2,0,16.4,0.1,22.4,4.4c6.8,4.7,10.9,12.9,10.9,22
		c0,10.9-5.6,20.1-14.8,24.6l9.8,12h7.5v16.4h-17.2l-23.3-28.4v12H258.8z M257.9,97.5c9.7,0,14.4-2.7,14.4-9.5
		c0-7.1-4.1-9.3-13.5-9.3h-4.7v18.7H257.9z"/>
	<path fill="#fff" d="M326.7,141.1c-17.2,0-30-13.2-30-31.6s12.8-31.6,30-31.6c8.3,0,14.2,2.6,18.7,8.6V79h23.4V95h-6.7v29h6.7v16.2h-24.3v-6.8
		C340.4,138.7,334.6,141.1,326.7,141.1z M329.9,124.8c8.5,0,14.7-6.4,14.7-15.3s-6.3-15.3-14.7-15.3c-8.5,0-14.7,6.4-14.7,15.3
		S321.4,124.8,329.9,124.8z"/>
	<path fill="#fff" d="M401.1,141.1c-17.2,0-30-13.2-30-31.6s12.8-31.6,30-31.6c8.3,0,14.2,2.6,18.7,8.6V76.4h-6.7V60.9h23.4V124h6.7v16.2h-24.3
		v-6.8C414.8,138.7,409,141.1,401.1,141.1z M404.3,124.8c8.5,0,14.7-6.4,14.7-15.3s-6.3-15.3-14.7-15.3c-8.5,0-14.7,6.4-14.7,15.3
		S395.8,124.8,404.3,124.8z"/>
	<path fill="#fff" d="M455.7,95h-7.5V79H473V124h7.7v16.2H448V124h7.7V95z M455.7,60.9H473v14.7h-17.3V60.9z"/>
	<path fill="#fff" d="M491.4,86.7c6.1-6,14.4-9.4,23.3-9.4c8.9,0,17.1,3.4,23.2,9.4c6.1,6,9.4,13.8,9.4,22.9c0,8.9-3.2,16.8-9.4,22.9
		c-6.1,6-14.3,9.3-23.2,9.3c-8.9,0-17.2-3.2-23.3-9.3c-6.1-6-9.4-13.9-9.4-22.9S485.2,92.7,491.4,86.7z M514.7,124.7
		c7.8,0,14.2-6.7,14.2-15.2c0-8.6-6.3-15.2-14.2-15.2c-7.8,0-14.3,6.6-14.3,15.2C500.4,118,506.9,124.7,514.7,124.7z"/>
</g>
<g>
	<g>
		<path fill="#fff" d="M572.9,140.2v-17.3c23.3-13.8,34.9-27,34.9-38.2c0-5.6-3-8.8-7.8-8.8c-4.9,0-8.1,4.1-8.1,11.4c0,0.6,0.1,1.2,0.1,1.8
			h-19.5c0-0.2,0-0.3,0-0.6c0-17.6,11.5-29.2,28.2-29.2s27.2,9.6,27.2,24c0,11.7-9.8,25.5-29.5,40.7h13.2v-5h16.2v21.2H572.9z"/>
	</g>
</g>
</svg>
