<svg xmlns="http://www.w3.org/2000/svg" viewBox="0 0 1496.23 428.17"><defs><style>.cls-1{fill:#fff;}</style></defs><title>Risorsa 1</title><g id="Livello_2" data-name="Livello 2"><g id="Livello_1-2" data-name="Livello 1"><path class="cls-1" d="M187.44,5.59v5.22L162.1,33.17,109.56,172.54H73L23.85,33.17,0,10.81V5.59H94.65v5.22L77.51,33.17l28.7,82.35,1.49,15.65,3-13.78,31.67-84.22L125.58,10.81V5.59Z"/><path class="cls-1" d="M200.5,10.81V5.59h93.91v5.22L273.54,33.17V145l20.87,22.36v5.22H200.5v-5.22L221.37,145V33.17Z"/><path class="cls-1" d="M382.86,177c-29.43,0-52.54-8.94-66.7-24.22v-54h8.57c8.2,32.42,23.85,60,52.54,60,16.77,0,25.35-9.32,25.35-26.46,0-33.54-83.11-20.49-83.11-83.1,0-29.81,33.17-48.07,64.85-48.07,20.12,0,42.11,5.22,54,14.16V59.62h-6.71c-9.31-25.34-27.2-40.24-42.48-40.24-12.3,0-22.36,6.71-22.36,21.61,0,33.17,85.34,21.24,85.34,81.61C452.18,156.51,423.48,177,382.86,177Z"/><path class="cls-1" d="M473.44,10.81V5.59h93.9v5.22L546.48,33.17V145l20.86,22.36v5.22h-93.9v-5.22L494.3,145V33.17Z"/><path class="cls-1" d="M674.28,177c-50.3,0-93.9-37.64-93.9-87.95S624,1.12,674.28,1.12s93.91,37.64,93.91,87.94S724.59,177,674.28,177Zm0-157.63c-29.06,0-40.62,32.05-40.62,69.68s11.56,69.69,40.62,69.69,40.62-32,40.62-69.69S703.35,19.38,674.28,19.38Z"/><path class="cls-1" d="M950.73,5.59v5.22L929.86,33.17V172.54H919.43L819.18,67.45l-3.72-12.3V145l20.87,22.36v5.22h-60v-5.22L797.2,145V33.17L776.33,10.81V5.59h55.52l75.28,77.88,4.47,12.67v-63L890.73,10.81V5.59Z"/><path class="cls-1" d="M1064.89,149.43,1054.08,123h-60L984,149.43l14.53,17.89v5.22H943.41v-5.22l20.87-17.89L1022.78,0h35.4l60.75,149.43,22.73,17.89v5.22h-92.05v-5.22Zm-18.26-44.71L1025,52.54l-1.49-10.8L1022,50.31l-20.87,54.41Z"/><path class="cls-1" d="M1168.11,33.17l-20.87-22.36V5.59H1256.8c35.78,0,63.73,13.42,63.73,48.44,0,30.19-17.89,43.23-45.47,45.84l20.5,3.35,47.35,109L1303.41,198l-41-53.07-27.2-44.34h-9.69l-5.22,5.21V145l17.52,22.36v5.22h-90.56v-5.22L1168.11,145Zm52.17,44,5.22,5.22h14.16c16.4,0,26.83-11.18,26.83-29.07,0-17.52-10.43-29.44-26.83-29.44H1225.5l-5.22,5.22Z"/><path class="cls-1" d="M1371.39,172.54v-5.22L1392.26,145V105.83l-48.45-77.14-22.36-17.88V5.59h90.93v5.22l-14.9,17.88,22.35,36.52,3.36,13.05,3.35-8.57,25.34-41L1437,10.81V5.59h59.25v5.22l-22,17.88-29.81,48.45V145l20.87,22.36v5.22Z"/><path class="cls-1" d="M6,423.7v-4.84l20.87-22.74V284.33L6,261.6v-4.85H107.32c54,0,94.28,28.7,94.28,83.48s-40.24,83.47-94.28,83.47Zm73-23.48,5.22,5.22H99.5c32.42,0,48.82-28.32,48.82-65.21S131.92,275,99.5,275H84.22L79,280.23Z"/><path class="cls-1" d="M320.86,400.6l-10.8-26.46h-60L240,400.6l14.53,17.88v5.22H199.38v-5.22l20.87-17.88,58.5-149.44h35.41L374.9,400.6l22.73,17.88v5.22h-92v-5.22ZM302.6,355.88,281,303.71,279.5,292.9,278,301.47l-20.87,54.41Z"/><path class="cls-1" d="M420.93,423.7v-5.22l20.87-22.36V357l-48.44-77.14L371,262v-5.22h90.93V262L447,279.86l22.36,36.52,3.35,13,3.36-8.57,25.34-41L486.52,262v-5.22h59.25V262l-22,17.89L494,328.3v67.82l20.87,22.36v5.22Z"/><path class="cls-1" d="M621.63,428.17c-29.44,0-52.54-8.94-66.7-24.22v-54h8.57c8.2,32.42,23.85,60,52.54,60,16.77,0,25.34-9.31,25.34-26.46,0-33.53-83.1-20.49-83.1-83.1,0-29.81,33.17-48.07,64.84-48.07,20.13,0,42.11,5.22,54,14.16v44.35h-6.71c-9.32-25.34-27.2-40.25-42.48-40.25-12.3,0-22.36,6.71-22.36,21.62,0,33.16,85.34,21.24,85.34,81.61C691,407.68,662.25,428.17,621.63,428.17Z"/></g></g></svg>