<svg xmlns="http://www.w3.org/2000/svg" viewBox="0 0 254.62 216.16"><defs><style>.cls-1{fill:#dbdbdb;}.cls-2{fill:#fff;}.cls-3{fill:none;}.cls-4{fill:#e3e3e3;}</style></defs><title>loghi UniGe RGB v1.1 espanso</title><g id="Layer_2" data-name="Layer 2"><path class="cls-1" d="M27,135.68c0-.79-.11-1-.84-1.05l-3.29-.36v-3.34H36.78v3.34l-3.49.42c-.78.1-.84.2-.84,1v20c0,9.39-5.27,13.62-14.29,13.62-10,0-14-4.59-14-13.77V135.68c0-.79-.1-1-.83-1.05L0,134.27v-3.34H14.56v3.34l-3.5.42c-.78.1-.83.2-.83,1v19c0,6.63,2.29,9.6,8.24,9.6S27,161.82,27,154.83Z"/><path class="cls-1" d="M56.09,168.71v-3.29l2.61-.32c.73-.1.83-.41.83-1V152c0-3.13-.36-5.74-3.7-5.74a13.23,13.23,0,0,0-7.15,2.71v15c0,.83,0,.94.83,1l2.77.37v3.34H39.34v-3.4l2.5-.31c.74-.1.84-.26.84-1v-16.8c0-.58-.16-.94-.68-1.1l-2.87-1,.52-3.34h7.73l.41,2.87.21.05c2.92-2,6-3.44,9.76-3.44,5.63,0,7.77,3.55,7.77,9.55V164c0,.83.06.94.84,1l2.87.37v3.34Z"/><path class="cls-1" d="M71.48,168.71v-3.29l3.13-.42c.73-.1.84-.26.84-1v-16.8c0-.58-.16-.94-.68-1.1l-2.87-1,.52-3.34h9V164c0,.83,0,.94.83,1l3.08.37v3.34Zm6.31-32.09a3.55,3.55,0,0,1-3.91-3.92c0-2.45,1.41-3.81,3.91-3.81s3.92,1.36,3.92,3.81A3.57,3.57,0,0,1,77.79,136.62Z"/><path class="cls-1" d="M97.36,168.71l-8.61-22.18c-.21-.63-.47-.73-1.09-.89l-2.2-.47.68-3.44H98.46v3.44l-3.5.42L101.38,163h.21l6.47-17.38-3.45-.42.58-3.44h10.75v3.44l-1.78.32c-.68.1-1,.21-1.3.88l-8.56,22.34Z"/><path class="cls-1" d="M139.83,166.88a21.88,21.88,0,0,1-10,2.45c-9.7,0-12.88-6.21-12.88-14.24,0-9.45,5.48-13.88,12.31-13.88,6.57,0,11.06,3.49,11.06,12.57,0,.68-.05,2-.15,3H123.29c.26,4.85,2.14,7.72,7.2,7.72a18.25,18.25,0,0,0,7.67-1.83Zm-5.53-14.4c0-5.12-2.35-6.73-5.16-6.73-3,0-5.53,2-5.8,6.73Z"/><path class="cls-1" d="M144,168.71v-3.4l2.51-.31c.73-.1.83-.26.83-1v-16.8a1,1,0,0,0-.68-1.1l-2.87-1,.53-3.34H152l.58,3.81.15.05c1.72-2.24,4.18-4.38,7.67-4.38a19.44,19.44,0,0,1,4.07.47v8.55l-4.69-.2-.63-3.24c-.05-.47-.16-.57-.63-.57-2,0-4.22,1.72-5.27,2.71v15c0,.84.11,1,.89,1l4.9.42v3.34Z"/><path class="cls-1" d="M182.88,149.5l-.58-3a.75.75,0,0,0-.57-.73,13.87,13.87,0,0,0-3.76-.52c-3.34,0-4.95,1.2-4.95,3.28,0,2.77,2.92,3.39,6.2,4.18,4.13,1,8.77,2.24,8.77,8.19,0,6.16-5.11,8.45-11.06,8.45-4.49,0-8.87-1.2-9.81-1.82v-7.1l4.33.26.52,3.18c.11.42.16.58.63.73a15.28,15.28,0,0,0,4.69.73c3.24,0,5.22-.94,5.22-3.6,0-2.92-3.34-3.39-6.83-4.17-4-.89-8.14-2.14-8.14-7.67,0-6.31,5.27-8.66,10.9-8.66a26.62,26.62,0,0,1,8.77,1.51v7Z"/><path class="cls-1" d="M190.91,168.71v-3.29L194,165c.73-.1.84-.26.84-1v-16.8c0-.58-.16-.94-.68-1.1l-2.87-1,.52-3.34h9V164c0,.83.05.94.83,1l3.08.37v3.34Zm6.31-32.09a3.55,3.55,0,0,1-3.91-3.92c0-2.45,1.41-3.81,3.91-3.81s3.92,1.36,3.92,3.81A3.57,3.57,0,0,1,197.22,136.62Z"/><path class="cls-1" d="M226.39,167.51a19.15,19.15,0,0,1-7.72,1.82c-5.48,0-7.78-2.4-7.78-7.56V146.53c0-.31,0-.52-.41-.52h-3.76V142.3c4.07-.52,5.69-3.28,6.37-7.88h3.8v6.79c0,.36,0,.52.42.52h7.57V146h-8V160.2c0,3.24.84,4.44,3.76,4.44a14.31,14.31,0,0,0,4.54-.89Z"/><path class="cls-1" d="M246.43,168.71l-.53-3.08-.15-.06a12.6,12.6,0,0,1-9.18,3.76c-6.58,0-7.47-4.49-7.47-7.41,0-5.22,3.24-7.72,9.6-8.24l6.63-.52V150.5c0-3.29-.57-5.07-4.59-5.07-2.87,0-4.8.21-4.8,3.81l-5.64-.52c0-6.68,6.11-7.51,10.54-7.51,7.57,0,10.39,2.14,10.39,9.34V164c0,.83.05.94.83,1l2.56.37v3.34Zm-2.93-29.43-9.23-7.52,3.6-3.49,8,8.76ZM245.33,157l-5,.41c-3.91.37-5.11,1.46-5.11,4s1.2,3.34,3.34,3.34a10.34,10.34,0,0,0,6.73-3.13Z"/><path class="cls-1" d="M20.63,215.54l-.49-3.06-.33,0a12.5,12.5,0,0,1-9.26,3.73c-6.26,0-10.4-3.84-10.4-13.53,0-10.33,5.12-14.42,11.44-14.42a13.88,13.88,0,0,1,8.06,2.33v-8.81a.93.93,0,0,0-.71-1l-3.11-1,.55-3.32h9.37v34.44c0,.83.05.93.87,1l2.66.36v3.32Zm-1.15-20.07A10.77,10.77,0,0,0,13.17,193c-4.69,0-6.54,3.94-6.54,9.49,0,6.38,2,8.82,5.67,8.82,2.66,0,5.28-1.56,7.18-3.48Z"/><path class="cls-1" d="M31.9,215.54v-3.27l3.27-.41c.76-.11.87-.26.87-1v-16.7c0-.57-.17-.93-.71-1.09l-3-1,.55-3.32H42.3v22.09c0,.83.05.93.87,1l3.21.36v3.32Zm6.59-31.9c-2.62,0-4.09-1.4-4.09-3.89S35.87,176,38.49,176s4.08,1.35,4.08,3.78S41.05,183.64,38.49,183.64Z"/><path class="cls-2" d="M96.3,201.8c-.65,0-.87.2-.87.72v11.15c-4.14,1.87-9.58,2.49-14.1,2.49-14.87,0-20-8.35-20-19.5s6.7-19.34,20.42-19.34c3.92,0,9,.93,12.31,3v9.8l-6-.42L87.21,185c-.17-.72-.38-.93-.87-1a20.91,20.91,0,0,0-5-.68c-7,0-11.22,5.09-11.22,13.23,0,8.55,3.81,13.64,11.6,13.64a30.29,30.29,0,0,0,4.52-.37c.6-.1.87-.26.87-.93v-6.79h-6l.77-4.67H98.53v4.15Z"/><path class="cls-2" d="M125.76,213.52a26.56,26.56,0,0,1-11.16,2.64c-10.51,0-14.11-6.22-14.11-14.31,0-9.39,6.05-13.85,13.51-13.85,7.19,0,12,3.58,12,12.55,0,.62-.06,2.44-.11,3.48H109.21c.27,3.68,2,6.11,6.42,6.11a24.11,24.11,0,0,0,8.12-1.76Zm-7.84-14.42c-.06-4.36-1.85-5.5-4.09-5.5s-4.24,1.25-4.57,5.5Z"/><path class="cls-2" d="M149.12,215.54V198.79c0-2.49-.16-4.57-2.89-4.57a11.36,11.36,0,0,0-5.66,1.92V210c0,.83.06.93.87,1l2.62.36v4.1H129v-4.15l2.45-.31c.76-.11.87-.26.87-1V194.79c0-.57-.16-.93-.71-1.08l-2.94-1,.65-4.2h9.53l.44,2.7.22.1a16.44,16.44,0,0,1,9.58-3.32c5.94,0,8.22,3.11,8.22,8.82V210c0,.83.06.93.87,1l2.73.36v4.1Z"/><path class="cls-2" d="M163.06,202.21c0-8.61,4.74-14.21,14.7-14.21s14,5.71,14,13.64c0,8.82-4.68,14.52-14.7,14.52S163.06,210.35,163.06,202.21Zm20.1-.31c0-6.12-2-8.3-5.5-8.3s-6,2.13-6,8.35,2.12,8.77,5.77,8.77S183.16,208.38,183.16,201.9Z"/><path class="cls-2" d="M204.39,215.54l-8.65-21.47c-.28-.62-.49-.73-1.15-.88l-2.29-.47.88-4.2h14.75v4.2l-3.48.41L210,207.91h.38l5.78-14.78-3.54-.41.7-4.2H225.9v4.2l-2,.31c-.71.16-1.09.26-1.36.88l-8.66,21.63Z"/><path class="cls-2" d="M244.63,215.54l-.54-2.8-.27-.05a12.63,12.63,0,0,1-9.15,3.47c-6.86,0-7.95-4.46-7.95-7.67,0-5.19,3.38-7.58,10.18-8l6.26-.42v-2.85c0-2.44-.27-4.1-3.64-4.1-2.62,0-4,.37-4,3.48l-7.68-.62c0-7,6.7-8,11.71-8,8.28,0,11.6,2.13,11.6,9.39V210c0,.83.05.93.87,1l2.61.41v4.1Zm-1.47-11.15-3.7.26c-3.21.21-4.35,1-4.35,3.06s1.3,2.85,3.1,2.85a9.2,9.2,0,0,0,4.95-1.87Z"/><rect class="cls-3" x="80.61" y="0.22" width="93.39" height="30.14"/><rect class="cls-4" x="132.55" y="0.76" width="41.46" height="9.28"/><polygon class="cls-4" points="80.6 30.36 122.05 30.36 122.05 20.55 80.6 20.55 80.6 10.04 122.05 10.04 122.05 0.76 80.6 0.76 80.6 30.36"/><polygon class="cls-4" points="132.55 20.55 132.55 30.36 174.02 30.36 174.02 10.04 174 20.55 132.55 20.55"/><rect class="cls-4" x="122.05" y="0.22" width="10.51" height="0.54"/><path class="cls-3" d="M174,31.05v-.69H80.61v5.47l0,3.61.08,4.12.15,4.38.23,4.4.33,4.19.44,3.79.56,3.39.65,3.05.74,2.76.82,2.53.88,2.36,1,2.22,1,2.16,1,2.14,1.09,2.13,1.19,2.14,1.29,2.15,1.42,2.17,1.58,2.19L96.81,94l2,2.29,2.2,2.34,2.47,2.38,2.82,2.42,3.2,2.43,3.66,2.45,4.15,2.45,4.71,2.44,5.33,2.41,5.32-2.41,4.72-2.44,4.15-2.45,3.65-2.45,3.21-2.43,2.81-2.42,2.48-2.38,2.19-2.34,2-2.29,1.76-2.24,1.58-2.19,1.42-2.17,1.29-2.15L165,83.06l1.1-2.13,1-2.14,1-2.16.94-2.22.89-2.36.82-2.53.74-2.76.65-3.05.55-3.39.45-3.79.33-4.19.23-4.4.14-4.38.08-4.12,0-3.61V33Zm-46.7,73.72A35.38,35.38,0,1,1,162.69,69.4,35.38,35.38,0,0,1,127.31,104.77Z"/><path class="cls-4" d="M127.31,116.64l-5.59-2.53L117,111.66l-4.19-2.46-3.68-2.47-3.24-2.46L103,101.83l-2.51-2.41L98.3,97.05l-2-2.3-1.78-2.26-1.6-2.22-1.44-2.2-1.3-2.16L89,83.75,87.9,81.6l-2.05-4.32L84.9,75,84,72.66l-.83-2.56-.75-2.8-.66-3.08-.56-3.43L80.76,57l-.34-4.22-.23-4.42-.14-4.4-.12-7.74V33.31L80-.11h.88l93.84-.15V33.31l0,6.5-.08,4.12-.14,4.39-.23,4.41-.34,4.21-.44,3.81-.56,3.42-.66,3.08L171.46,70l-.83,2.57-.9,2.38-.95,2.26-2.05,4.32-1.1,2.15-1.19,2.15L163.14,88l-1.44,2.19-1.59,2.22-1.78,2.26-2,2.31-2.21,2.36-2.5,2.4-2.84,2.45-3.24,2.46-3.68,2.47-4.19,2.47L133,114.09ZM81.7,1.64V33.31l0,6.48.08,4.11.14,4.36.23,4.38.33,4.16.44,3.75.55,3.35.64,3,.73,2.71.8,2.48.87,2.3.93,2.19,2,4.25,1.09,2.1L91.71,85,93,87.14l1.4,2.14,1.55,2.16,1.73,2.2,1.93,2.24,2.17,2.31,2.43,2.34,2.77,2.38,3.16,2.39,3.6,2.42,4.1,2.41,4.66,2.41,4.82,2.18,4.87-2.21,4.66-2.41,4.11-2.42,3.6-2.41,3.15-2.4,2.76-2.38,2.43-2.34,2.16-2.3L157,93.6l1.73-2.2,1.55-2.16,1.4-2.13L162.92,85l1.17-2.11,1.08-2.1,2-4.25.93-2.2L169,72l.8-2.48.72-2.71.64-3,.54-3.34.44-3.74.33-4.14.23-4.38.14-4.36.11-7.7V1.49Z"/><polygon class="cls-4" points="126.35 67.72 130.17 68.75 128.96 72.94 128.46 72.89 127.7 72.89 127.29 72.92 127.03 72.92 126.84 72.9 126.69 72.86 126.52 72.82 126.42 72.8 126.3 72.78 126.14 72.81 126.02 72.99 126.02 73.18 126.06 73.31 126.13 73.41 126.19 73.48 126.29 73.58 126.43 73.68 126.79 73.89 126.8 73.9 126.75 73.91 126.46 73.95 126.1 73.97 125.67 73.99 125.29 74.03 124.88 74.1 124.45 73.98 126.35 67.72"/><polygon class="cls-4" points="125.02 74.72 125.05 74.62 125.1 74.53 125.17 74.44 125.26 74.38 125.48 74.3 125.78 74.25 125.99 74.22 126.3 74.2 126.72 74.18 127.08 74.16 127.39 74.12 127.53 74.08 127.62 74.05 127.64 74.03 127.69 73.99 127.71 73.94 127.71 73.89 127.68 73.84 127.62 73.78 127.51 73.71 127.15 73.5 127.03 73.42 126.95 73.34 126.91 73.29 126.86 73.22 126.84 73.14 126.84 73.05 126.87 73 126.92 73 127 73.01 127.08 73.03 127.25 73.07 127.41 73.11 127.63 73.14 127.91 73.13 128.31 73.1 129.06 73.1 129.25 73.13 129.43 73.15 129.62 75.29 129.46 75.42 129.27 75.55 129.1 75.64 128.78 75.79 128.52 75.9 128.26 76 127.91 76.12 127.57 76.22 127.14 76.32 126.81 76.37 126.45 76.39 126.09 76.36 125.7 76.23 125.43 76.06 125.26 75.87 125.11 75.56 125.05 75.36 125 75.09 125 74.84 125.02 74.72"/><polygon class="cls-3" points="124.07 51.15 124.33 51.45 124.63 51.63 125.03 51.74 125.05 51.97 125.08 52.09 125.11 52.18 125.15 52.23 125.23 52.26 125.53 52.2 126.19 52.15 127.03 52.07 127.92 52.08 128.85 52.08 129.43 52.13 130.14 52.22 130.7 52.27 130.81 52.25 130.87 52.14 130.92 51.97 130.93 51.85 130.94 51.75 130.96 51.73 131.13 51.7 131.34 51.63 131.57 51.5 131.75 51.34 131.92 51.11 132.04 50.84 132.1 50.49 132.08 50.24 132.01 49.99 131.84 49.69 131.64 49.48 131.28 49.27 131.06 49.21 130.66 49.19 130.34 49.13 130.11 49.05 129.89 48.95 129.55 48.74 129.15 48.37 129.12 48.3 128.98 48.07 128.81 47.9 128.56 47.73 128.21 47.62 127.93 47.6 127.54 47.68 127.37 47.76 127.11 47.95 127.05 48.01 126.85 48.3 126.67 48.52 126.44 48.72 126.16 48.9 125.85 49.05 125.47 49.16 125.06 49.19 124.81 49.23 124.53 49.34 124.31 49.49 124.09 49.73 123.96 49.98 123.88 50.3 123.89 50.73 124.07 51.15"/><path class="cls-3" d="M137.73,95.74l-.32-1.4L137,92.52,136.8,91l-.23-3.77-.11-3.52-.05-2.89,0-1.87v-.66l-.21.18-.54.58-.46.43-.6.6-.64-6.92.32-.78.68,6.74.69-.78,1-1.25.58-.72.63-.85.3-.68.42-1.18.27-.89L139,72v-.74l-.19-1.56-.45-1.28-.92-2.19-.91-2-.2-.31L135,62.33l-1-1.21a.41.41,0,0,0,.12-.17.41.41,0,0,0,0-.39l-.44-.71-.81-1.12-.27-.26-.15-.11-.17-.08-.45-.07-.06,0-.18-.17-.12-.23-.1-.25-.05-.29v-.44l0-.21,0-.24,0-.21v-.54l0-.31-.08-.53-.22-1-.23-1.05,0-.31-.78-.08-1.13-.09-1.11,0-.5,0-.64,0-.68.07-.65.07-.19.46-.28.8-.12.69,0,.67v.5l-.07.77-.19.89-.22.65-.27.63-.19.35-.34.46-.57.16-.64.45-2.06,2.71a.44.44,0,0,0,0,.58l.05,0-.16.21-.23.36-.17.32-.25.54-.25.62-.41,1.18-.36,1.12-.48,1.38-.27.51-.51.79-.61.86-.49.69-.43.65-.31.54-.27.65-.08.31,0,.26v.11l-.48-.1-.39,0h-.15l-.15,0-.14,0-.19.14-.09.17,0,.24v0l-.27.1-.43.24-.39.32-.21.26-.12.23,0,.07,0,.19,0,.23.07.2,0,.15.09.16.32.45.36.34.22.15.2.1.29.1.25,0,.18,0,.91-.38.6-.16.47,0,.29,0,0,.09v.31l.11.47,0,.36.08.41.14.5,0,.13.1.18.08.1.11.1.12,0,.15,0,.13,0,.17-.06.12-.06.12-.08.09-.08.18-.18.23-.28.24-.36.26-.46.18-.37.46-1.07.34-1L120,75l.19-1.65.28-2.27.21-1.37.41-2.55.39.17L121,70.24l-.42,3.21-.37,3.42-.3,3.45-.55,5-.53,3.22-.43,2.15-.51,2.13-.6,2.15L117,96.64l-.34,2-.23,1.43-.2,1.38,23,.2-1-4.14ZM115.24,77.11l-.52.11-.87.39-.23,0h-.16l-.22-.07-.14-.07-.36-.27-.33-.41-.2-.43,0-.17v-.06l.28-.41.32-.27.49-.25.49-.1-.05-.23,0-.19,0-.07.16-.06.8.13.15.53.39,1,.23.5.14.37ZM125.51,54.2l0-.27.06-.2.09-.2.07-.11.09-.11.07-.08.09-.07.09-.06.11-.06.13,0,.11,0,.24,0h.42l.37,0h.68l.31,0H129l.2,0,.16,0,.19.09.14.09.14.13.12.16.14.31.07.26,0,.41,0,.45-.09.63-.42,1.45-.16.5-.09.45,0,.34v.28l0,.25,0,.09L129,59l-1.86.17H126l.23-.39,0-.35V57.9l0-.2a.17.17,0,0,0,.06.11l.28.22,0,0,.38.17.46.08.33,0,.27-.06.26-.08.58-.3.33-.22a.21.21,0,0,0,.06-.3.22.22,0,0,0-.31-.06l-.3.21-.31.17-.21.09-.43.11-.26,0-.21,0-.13,0-.24-.1-.32-.23a.22.22,0,0,0-.31,0,.2.2,0,0,0,0,.13l0-.15-.11-.38-.16-.44-.11-.34-.14-.51-.1-.5,0-.4,0-.49Zm3.61,7.24-2.31.46h-1l-2.74-.08h-.61l-.86.08.29-.4.83-1,.29-.24,2.61-.28h1.51l1.17-.07,1.26-.21.72-.24,1.26-.39h.31l.09,0,.59.7.45.68Z"/><polygon class="cls-4" points="131.96 59.12 131.87 59.09 131.83 59.09 131.76 59.09 131.56 59.1 130.3 59.49 129.58 59.73 128.32 59.94 127.15 60.01 125.64 60 123.03 60.28 122.74 60.52 121.91 61.51 121.62 61.91 122.48 61.83 123.09 61.83 125.83 61.91 126.81 61.9 129.12 61.44 133 60.5 132.55 59.82 131.96 59.12"/><path class="cls-4" d="M125.56,55.31l.1.5.14.51.11.34.16.44.11.38,0,.15a.2.2,0,0,1,0-.13.22.22,0,0,1,.31,0l.32.23.24.1.13,0,.21,0,.26,0,.43-.11.21-.09.31-.17.3-.21a.22.22,0,0,1,.31.06.21.21,0,0,1-.06.3l-.33.22-.58.3-.26.08-.27.06-.33,0-.46-.08-.38-.17,0,0-.28-.22a.17.17,0,0,1-.06-.11l0,.2v.49l0,.35-.23.39h1.17L129,59l.4-.11,0-.09,0-.25v-.28l0-.34.09-.45.16-.5.42-1.45.09-.63,0-.45,0-.41-.07-.26-.14-.31-.12-.16-.14-.13-.14-.09-.19-.09-.16,0-.2,0h-.47l-.31,0h-.68l-.37,0h-.42l-.24,0-.11,0-.13,0-.11.06-.09.06-.09.07-.07.08-.09.11-.07.11-.09.2-.06.2,0,.27,0,.22,0,.49Z"/><path class="cls-4" d="M127.31,36a34.33,34.33,0,1,0,34.32,34.33A34.32,34.32,0,0,0,127.31,36ZM124,50l.14-.25.21-.24.22-.15.28-.11.25,0,.41,0,.38-.12.31-.15.28-.19.23-.19.18-.22.2-.29.06-.06.26-.19.17-.08.39-.08.28,0,.35.12.25.16.17.17.14.23,0,.06.4.38.34.21.22.1.23.08.32.06.4,0,.22.06.36.21.2.21.17.3.07.25,0,.25-.06.35-.12.27-.17.23-.18.16-.23.13-.21.07-.17,0,0,0V52l0,.17-.06.11-.11,0-.56-.05-.72-.09-.57-.05H127l-.84.08-.66.05-.3.06-.08,0,0,0,0-.09,0-.12,0-.23-.4-.11-.3-.18-.26-.3-.18-.42V50.3Zm-7.75,51.48.2-1.38.23-1.43.34-2,.34-1.63.6-2.15.51-2.13.43-2.15.53-3.22.55-5,.3-3.45.37-3.42.42-3.21.44-2.88-.39-.17-.41,2.55-.21,1.37-.28,2.27L120,75l-.39,1.25-.34,1-.46,1.07-.18.37-.26.46-.24.36-.23.28-.18.18-.09.08-.12.08-.12.06-.17.06-.13,0-.15,0-.12,0-.11-.1-.08-.1-.1-.18,0-.13-.14-.5-.08-.41,0-.36-.11-.47v-.31l0-.09-.29,0-.47,0-.6.16-.91.38-.18,0-.25,0-.29-.1-.2-.1-.22-.15-.36-.34-.32-.45-.09-.16,0-.15-.07-.2,0-.23,0-.19,0-.07.12-.23.21-.26.39-.32.43-.24.27-.1v0l0-.24.09-.17.19-.14.14,0,.15,0H114l.39,0,.48.1V74.2l0-.26.08-.31.27-.65.31-.54.43-.65.49-.69.61-.86.51-.79.27-.51.48-1.38.36-1.12.41-1.18.25-.62.25-.54.17-.32.23-.36.16-.21-.05,0a.44.44,0,0,1,0-.58l2.06-2.71.64-.45.57-.16.34-.46.19-.35.27-.63.22-.65.19-.89.07-.77V55l0-.67.12-.69.28-.8.19-.46.65-.07.68-.07.64,0,.5,0,1.11,0,1.13.09.78.08,0,.31.23,1.05.22,1,.08.53,0,.31v.54l0,.21,0,.24,0,.21v.44l.05.29.1.25.12.23.18.17.06,0,.45.07.17.08.15.11.27.26.81,1.12.44.71a.41.41,0,0,1,0,.39.41.41,0,0,1-.12.17l1,1.21,1.28,1.61.2.31.91,2,.92,2.19.45,1.28.19,1.56V72l-.16.79-.27.89-.42,1.18-.3.68-.63.85-.58.72-1,1.25-.69.78-.68-6.74-.32.78.64,6.92.6-.6.46-.43.54-.58.21-.18v.66l0,1.87.05,2.89.11,3.52L136.8,91l.23,1.53.38,1.82.32,1.4.42,1.78,1,4.14Z"/><polygon class="cls-4" points="115.2 76.21 114.81 75.25 114.66 74.72 113.86 74.59 113.7 74.65 113.68 74.72 113.71 74.91 113.76 75.14 113.27 75.24 112.78 75.49 112.46 75.76 112.18 76.17 112.18 76.19 112.18 76.23 112.21 76.41 112.41 76.83 112.74 77.24 113.1 77.51 113.24 77.58 113.46 77.65 113.62 77.66 113.85 77.61 114.72 77.22 115.24 77.11 115.58 77.08 115.43 76.71 115.2 76.21"/></g></svg>