<?xml version="1.0" encoding="utf-8"?>
<!-- Generator: Adobe Illustrator 23.0.2, SVG Export Plug-In . SVG Version: 6.00 Build 0)  -->
<svg version="1.1" id="Layer_1" xmlns="http://www.w3.org/2000/svg" xmlns:xlink="http://www.w3.org/1999/xlink" x="0px" y="0px"
     viewBox="0 0 252.9 252.9" style="enable-background:new 0 0 252.9 252.9;" xml:space="preserve">
<style>path{fill:#FFF}</style>
    <path d="M97.2,162.8h17.6v5.2H109v29.6h-6V168h-5.8V162.8z M204.5,166.8l1.2,2.2h-1.1l-1.1-2.2h-0.6v2.2h-1v-5.1h1.9
	c1.3,0,2,0.4,2,1.5C205.7,166.3,205.1,166.7,204.5,166.8z M204.7,165.3c0-0.5-0.3-0.6-1-0.6h-0.8v1.4h0.9
	C204.4,166,204.7,165.8,204.7,165.3z M94.3,171.3v18c0,4.9-2.9,8.9-9.2,8.9s-9.2-4-9.2-8.9v-18c0-4.9,2.9-8.9,9.2-8.9
	S94.3,166.3,94.3,171.3z M88.3,171.4c0-2.6-0.8-3.9-3.2-3.9s-3.2,1.3-3.2,3.9v17.7c0,2.6,0.8,3.9,3.2,3.9s3.2-1.3,3.2-3.9V171.4z
	 M252.9,126.5c0,69.7-56.7,126.5-126.5,126.5S0,196.2,0,126.5S56.7,0,126.5,0S252.9,56.7,252.9,126.5z M237.9,126.5
	C237.9,65,187.9,15,126.5,15S15,65,15,126.5c0,61.5,50,111.5,111.5,111.5S237.9,187.9,237.9,126.5z M124.4,138H74.3
	c26.4-24,50.1-34.6,50.1-60.4c0-19.8-15.8-30.5-34.4-30.5c-18.9,0-34.1,12.6-36.3,28.9l17,3.7C73,70,79.1,63,89.7,63
	c9.7,0,15.7,5.4,15.7,14.7c0,19.3-48.9,42.8-52.2,59.3v17.4h71.2V138z M72,187.6c0,5.7-2.6,10.1-9.4,10.1h-9.5v-34.8h8.9
	c6.4,0,9.3,3.3,9.3,9.2c0,3-1.3,6.1-4.2,7.3C70.2,180.7,72,183.1,72,187.6z M59.2,177.1h2.2c2.3,0,4-1.5,4-4.4
	c0-3.2-1.3-4.9-3.9-4.9h-2.3V177.1z M66,187.4c0-3.6-1.4-5.4-4.9-5.4h-1.9v10.7h2.5C64.9,192.7,66,190.9,66,187.4z M174.9,154.4
	v-24.3h-50.5v-14.7l48-66.8H193v66.8H208v14.7H193v24.3H174.9z M174.9,115.5V68.3h-0.3l-32.7,47.2H174.9z M181.4,171
	c0-2.2,1.1-3.4,3-3.4c1.4,0,2.9,0.9,3.2,3.9l5.7-0.6c-0.5-4.9-3.4-8.4-8.3-8.4c-5.9,0-9.3,3.1-9.3,8.7c0,10,12.2,11.8,12.2,18.7
	c0,2.1-1.4,3.2-3.5,3.2c-1.9,0-3.3-1.7-3.6-5.3l-5.7,0.8c0.2,5.2,3.4,9.7,9,9.7c5.6,0,9.5-3.2,9.5-8.9
	C193.6,179.8,181.4,176.9,181.4,171z M208.3,166.4c0,2.8-2.2,4.6-4.7,4.6c-2.5,0-4.7-1.8-4.7-4.6c0-2.8,2.2-4.6,4.7-4.6
	C206.1,161.9,208.3,163.7,208.3,166.4z M207.1,166.4c0-2.1-1.5-3.6-3.5-3.6c-1.9,0-3.5,1.5-3.5,3.6c0,2.1,1.5,3.6,3.5,3.6
	C205.5,170,207.1,168.5,207.1,166.4z M161.8,182.2h7.7V177h-7.7v-9h10v-5.2h-16v34.8h16.7v-5.2h-10.7V182.2z M143.3,162.8h-6v34.8
	h15.4v-5.2h-9.4V162.8z M116.8,168h5.8v29.6h6V168h5.8v-5.2h-17.6V168z"/>
</svg>
