<svg xmlns="http://www.w3.org/2000/svg" width="180" height="49.199999999999996" viewBox="0 0 794.7384 202.92113"> <path class="text" fill="#fff" d="M159.355 141.127375C159.355 125.847375 146.37875 113.039875 130.8975 113.039875 115.41875 113.039875 102.4425 125.847375 102.4425 141.127375l0 50.55625c0 6.29375 -5.00875 11.2375 -11.38375 11.2375 -6.3725 0 -11.38125 -4.94375 -11.38125 -11.2375l0 -50.55625c0 -15.28 -12.97625 -28.0875 -28.4575 -28.0875 -15.48 0 -28.455 12.8075 -28.455 28.0875l0 50.55625c0 6.29375 -5.00875 11.2375 -11.38375 11.2375 -6.375 0 -11.38125 -4.94375 -11.38125 -11.2375l0 -89.87875c0 -6.29125 5.00625 -11.23375 11.38125 -11.23375 5.46375 0 10.0175 3.595 11.155 8.7625 8.42375 -5.84125 17.985 -8.7625 28.68375 -8.7625 16.39125 0 30.505 7.41375 39.83875 18.87375 9.335 -11.46 23.44875 -18.87375 39.83875 -18.87375C159.12625 90.571125 182.12 113.264875 182.12 141.127375l0 50.55625c0 6.29375 -5.00875 11.2375 -11.3825 11.2375 -6.37375 0 -11.3825 -4.94375 -11.3825 -11.2375L159.355 141.127375z"></path> <path class="text" fill="#fff" d="M208.30275 101.804875c0 -6.29125 5.0075 -11.23375 11.3825 -11.23375 6.37375 0 11.3825 4.9425 11.3825 11.23375l0 89.87875c0 6.29375 -5.00875 11.2375 -11.3825 11.2375 -6.375 0 -11.3825 -4.94375 -11.3825 -11.2375L208.30275 101.804875z"></path> <path class="text" fill="#fff" d="M416.60225 141.127375C416.60225 125.847375 403.626 113.039875 388.146 113.039875 372.666 113.039875 359.68975 125.847375 359.68975 141.127375l0 50.55625c0 6.29375 -5.00875 11.2375 -11.38375 11.2375 -6.37375 0 -11.3825 -4.94375 -11.3825 -11.2375l0 -50.55625c0 -15.28 -12.97625 -28.0875 -28.45625 -28.0875 -15.48125 0 -28.45625 12.8075 -28.45625 28.0875l0 50.55625c0 6.29375 -5.00875 11.2375 -11.3825 11.2375 -6.375 0 -11.3825 -4.94375 -11.3825 -11.2375l0 -89.87875c0 -6.29125 5.0075 -11.23375 11.3825 -11.23375 5.4625 0 10.01625 3.595 11.155 8.7625 8.4225 -5.84125 17.985 -8.7625 28.68375 -8.7625 16.39 0 30.505 7.41375 39.83875 18.87375 9.33375 -11.46 23.44875 -18.87375 39.84 -18.87375C416.37475 90.571125 439.36725 113.264875 439.36725 141.127375l0 50.55625c0 6.29375 -5.00875 11.2375 -11.3825 11.2375 -6.37375 0 -11.3825 -4.94375 -11.3825 -11.2375L416.60225 141.127375z"></path> <path class="text" fill="#fff" d="M555.473125 146.745C555.473125 128.095 540.22065 113.04 521.325625 113.04 502.429375 113.04 487.176875 128.095 487.176875 146.745c0 18.65 15.2525 33.705 34.14875 33.705C540.220625 180.45 555.473125 165.395 555.473125 146.745m-91.06125 0c0 -31.23375 25.27 -56.17375 56.91375 -56.17375 31.6425 0 56.91375 24.94 56.91375 56.17375 0 31.2325 -25.27125 56.175 -56.91375 56.175 -31.64375 0 -56.91375 -24.9425 -56.91375 -56.175"></path> <path class="text" fill="#fff" d="M603.278375 56.864625c0 -6.29125 5.01 -11.235 11.3825 -11.235 6.375 0 11.38375 4.94375 11.38375 11.235l0 33.70625 18.21125 0c6.375 0 11.3825 4.9425 11.3825 11.23375 0 6.29125 -5.0075 11.235 -11.3825 11.235l-18.21125 0 0 56.175c0 6.0675 5.0075 11.235 11.3825 11.235 2.96 0 5.69125 -1.1225 7.96625 -3.37 4.55375 -4.49375 11.83875 -4.49375 16.16375 0 4.55375 4.26875 4.55375 11.46 0 15.95375 -6.145 6.0675 -14.79625 9.8875 -24.13 9.8875C618.532125 202.920875 603.278375 187.865875 603.278375 169.214625L603.278375 56.864625z"></path> <path class="text" fill="#fff" d="M771.972125 146.745C771.972125 128.095 756.719625 113.04 737.824625 113.04 718.928375 113.04 703.675875 128.095 703.675875 146.745c0 18.65 15.2525 33.705 34.14875 33.705C756.719625 180.45 771.972125 165.395 771.972125 146.745m-91.0625 0c0 -31.23375 25.27125 -56.17375 56.915 -56.17375 31.6425 0 56.91375 24.94 56.91375 56.17375 0 31.2325 -25.27125 56.175 -56.91375 56.175 -31.64375 0 -56.915 -24.9425 -56.915 -56.175"></path> <path class="ball" fill="#fff" d="M70.576875 30.47C70.576875 13.64125 84.398125 0 101.446875 0 118.499375 0 132.319375 13.64125 132.319375 30.47 132.319375 47.29875 118.499375 60.94 101.446875 60.94 84.398125 60.94 70.576875 47.29875 70.576875 30.47"></path> <path class="ball" fill="#fff" d="M112.473875 30.47C112.473875 13.64125 126.295125 0 143.345125 0 160.396375 0 174.216375 13.64125 174.216375 30.47 174.216375 47.29875 160.396375 60.94 143.345125 60.94 126.295125 60.94 112.473875 47.29875 112.473875 30.47"></path> <path class="ball" fill="#fff" d="M153.268625 30.47C153.268625 13.64125 167.088625 0 184.138625 0 201.191125 0 215.012375 13.64125 215.012375 30.47 215.012375 47.29875 201.191125 60.94 184.138625 60.94 167.088625 60.94 153.268625 47.29875 153.268625 30.47"></path> <path class="ball" fill="#fff" d="M189.652875 30.47C189.652875 13.64125 203.474125 0 220.524125 0 237.574125 0 251.395375 13.64125 251.395375 30.47 251.395375 47.29875 237.574125 60.94 220.524125 60.94 203.474125 60.94 189.652875 47.29875 189.652875 30.47"></path> </svg>
