<?xml version="1.0" standalone="no"?>
<!DOCTYPE svg PUBLIC "-//W3C//DTD SVG 20010904//EN"
 "http://www.w3.org/TR/2001/REC-SVG-20010904/DTD/svg10.dtd">
<svg version="1.0" xmlns="http://www.w3.org/2000/svg"
 width="280.000000pt" height="280.000000pt" viewBox="0 0 280.000000 280.000000"
 preserveAspectRatio="xMidYMid meet">
<metadata>
Created by potrace 1.11, written by Peter Selinger 2001-2013
</metadata>
<g transform="translate(0.000000,280.000000) scale(0.100000,-0.100000)"
fill="#000000" stroke="none">
<path d="M43 2612 c-20 -2 -33 -9 -34 -18 -5 -90 -17 -75 166 -212 115 -86
172 -135 176 -152 7 -24 71 -207 207 -595 33 -93 139 -397 237 -675 97 -278
190 -543 207 -590 16 -47 37 -105 46 -130 8 -25 17 -47 19 -50 8 -10 606 -5
618 5 10 9 60 137 235 605 26 69 77 206 115 305 81 214 62 165 265 705 90 239
168 441 173 447 5 7 77 65 161 129 l151 116 5 54 5 54 -35 1 c-45 0 -912 0
-922 0 -5 -1 -8 -24 -8 -52 0 -55 -16 -36 194 -232 l69 -64 -72 -194 c-40
-107 -88 -232 -106 -279 -18 -47 -50 -130 -70 -185 -35 -94 -81 -216 -194
-515 -27 -69 -51 -134 -56 -145 l-7 -20 -9 20 c-9 23 -27 73 -204 585 -143
413 -196 565 -230 662 l-24 67 62 59 c34 33 94 91 134 128 69 66 72 71 69 111
-1 24 -5 46 -9 49 -6 7 -1271 12 -1334 6z"/>
</g>
</svg>
